PathFileType	4	(X/Y/Z)	G:\Shared drives\HPL_Drive\Nord Sprinting Study\Kristen_Nord_test\Trimmed_Nord000006.trc
DataRate	CameraRate	NumFrames	NumMarkers	Units	OrigDataRate	OrigDataStartFrame	OrigNumFrames
200.00	200.00	      6	52	mm	200.00	1277	      2043
Frame#	Time	C7			R_Shoulder			L_Shoulder			Sternum			R_humerus			R_elbow_med			R_elbow_lat			R_forearm			R_wrist_radius			R_wrist_ulna			L_humerus			L_elbow_med			L_elbow_lat			L_forearm			L_wrist_radius			L_wrist_ulna			r.ASIS			r.PSIS			r_IC			L.ASIS			L.PSIS			l_IC			r_thigh1			r_thigh2			r_thigh3			r_thigh4			r_thigh5			r_knee			r_mknee			r_shank_antsup			r_sh2			r_sh3			r_sh4			r_ankle			r_mankle			r_calc			r_5meta			r_toe			L_thigh1			L_thigh2			L_thigh3			L_thigh4			L_knee			L_mknee			L_shank_antsup			L_sh2			L_sh3			L_ankle			L_mankle			L_calc			L_5meta			L_toe			
		X1	Y1	Z1	X2	Y2	Z2	X3	Y3	Z3	X4	Y4	Z4	X5	Y5	Z5	X6	Y6	Z6	X7	Y7	Z7	X8	Y8	Z8	X9	Y9	Z9	X10	Y10	Z10	X11	Y11	Z11	X12	Y12	Z12	X13	Y13	Z13	X14	Y14	Z14	X15	Y15	Z15	X16	Y16	Z16	X17	Y17	Z17	X18	Y18	Z18	X19	Y19	Z19	X20	Y20	Z20	X21	Y21	Z21	X22	Y22	Z22	X23	Y23	Z23	X24	Y24	Z24	X25	Y25	Z25	X26	Y26	Z26	X27	Y27	Z27	X28	Y28	Z28	X29	Y29	Z29	X30	Y30	Z30	X31	Y31	Z31	X32	Y32	Z32	X33	Y33	Z33	X34	Y34	Z34	X35	Y35	Z35	X36	Y36	Z36	X37	Y37	Z37	X38	Y38	Z38	X39	Y39	Z39	X40	Y40	Z40	X41	Y41	Z41	X42	Y42	Z42	X43	Y43	Z43	X44	Y44	Z44	X45	Y45	Z45	X46	Y46	Z46	X47	Y47	Z47	X48	Y48	Z48	X49	Y49	Z49	X50	Y50	Z50	X51	Y51	Z51	X52	Y52	Z52	

1277	6.380	1205.96301	720.18115	1190.01050	1327.43567	758.80316	1179.90039	1073.68542	765.17194	1189.50415	1200.89172	832.59631	1107.78552	1493.09119	691.48328	1156.14648	1619.25781	668.35828	1064.42090	1605.66846	618.85803	1124.60657	1625.12354	706.73981	1217.78235	1620.99365	812.73950	1272.65320	1657.87769	787.66241	1290.36938	877.79803	706.74377	1160.45630	768.51410	708.20569	1068.25989	769.52039	654.44427	1124.67139	792.13013	758.40051	1228.47949	827.73260	839.75696	1276.23511	777.88385	836.78979	1287.50671	1329.31299	634.53076	675.30768	1277.17603	532.39850	835.60095	1362.04688	631.17206	786.01434	1090.39099	627.74976	672.22559	1160.23450	530.09686	828.81775	1063.24377	628.96606	770.33618	1396.46570	485.77478	480.27295	1392.01807	428.18777	381.20480	1401.04138	373.80466	378.85272	1399.58923	393.23071	536.07379	1382.29834	337.23663	432.47894	1386.13879	345.61240	310.14972	1262.37598	333.77396	321.31259	1405.13367	208.92097	311.67621	1387.04675	91.18195	323.37762	1410.15686	214.13391	388.00662	1390.45374	102.01470	405.02426	1371.43774	-71.25671	378.91870	1294.77722	-53.47652	348.75204	1314.29358	-89.17624	439.30801	1375.60217	-159.78151	287.99835	1340.08752	-135.44073	235.61131	1021.46021	490.57813	477.93372	1025.64917	422.97424	354.64658	1021.21021	388.17169	541.20355	1027.91541	326.86514	418.09567	1012.30792	332.32767	326.55795	1140.48145	331.87537	308.20444	998.04974	218.05618	310.96640	992.97284	230.15410	401.46979	1002.40973	109.54237	409.22330	1012.42560	-69.03829	380.36456	1091.27002	-52.57573	356.33005	1060.64722	-71.07986	439.67270	1012.01581	-170.17863	290.96863	1058.30432	-155.49730	240.31491	
1278	6.385	1205.93542	720.51367	1189.78137	1326.53381	758.98755	1179.29688	1073.64160	765.53589	1189.28943	1200.89160	832.93292	1107.57813	1493.03662	691.72760	1156.03149	1619.23315	668.48962	1064.29810	1605.57776	619.04028	1124.52722	1625.02563	706.96375	1217.68555	1620.97095	813.00336	1272.46997	1657.84778	787.92200	1290.20752	877.72998	707.16687	1160.16565	769.20569	708.71167	1067.66199	769.41766	654.92133	1124.37646	792.08942	758.86536	1228.13562	827.66937	840.28021	1275.92871	777.82544	837.31744	1287.15747	1329.28052	634.63049	675.15222	1277.11609	532.62189	835.50586	1362.04163	631.34027	785.86603	1090.37341	627.88647	672.12994	1160.19421	530.32715	828.75543	1063.17346	629.13312	770.23364	1396.40845	485.86343	480.25555	1391.94995	428.18454	381.17923	1400.95374	373.82941	378.82608	1400.15222	393.39813	536.32764	1382.28247	337.31790	432.47061	1386.12488	345.58728	310.07648	1262.37476	333.79742	321.29721	1405.16052	208.99138	311.72510	1387.04749	91.18393	323.40814	1410.15247	214.15736	388.02124	1390.46082	102.02810	405.06372	1371.44043	-71.24041	378.90240	1294.80127	-53.46632	348.81540	1314.26208	-89.16573	439.28119	1375.27002	-159.69135	287.85550	1340.24072	-135.42952	235.53784	1021.39838	490.67288	477.81198	1025.70239	423.00076	354.51773	1021.13977	388.29462	541.08234	1027.83301	326.90085	418.05536	1012.28174	332.35168	326.52475	1140.47327	331.85815	308.15686	997.99835	218.09084	310.87952	992.87433	230.15883	401.46823	1002.31476	109.52847	409.21118	1012.26849	-69.02084	380.37134	1091.15845	-52.55612	356.31772	1060.44946	-71.06494	439.71362	1012.67603	-170.46729	290.30194	1058.17419	-155.54965	240.35399	
1279	6.390	1205.90063	720.90796	1189.54700	1326.53162	759.34436	1179.03650	1073.64148	765.98553	1188.97498	1200.98560	833.29498	1107.30615	1493.00244	691.98608	1155.85364	1619.21277	668.62646	1064.16663	1605.45764	619.25098	1124.44885	1625.00378	707.19098	1217.46753	1620.95972	813.31348	1272.26208	1657.81030	788.17310	1289.99744	877.67688	707.61652	1159.85095	769.18060	709.20197	1067.36450	769.35498	655.41449	1124.06396	792.04584	759.42719	1227.79187	827.58740	840.79846	1275.51160	777.71423	837.87238	1286.82690	1329.21021	634.72485	675.02155	1277.09045	532.85077	835.35968	1361.99377	631.51477	785.74719	1090.32886	628.00189	671.91980	1160.16077	530.56683	828.52576	1063.09326	629.34039	770.06873	1396.34595	485.92084	480.14676	1391.93164	428.31110	381.11502	1401.01331	373.99011	378.78888	1399.52991	393.51056	535.99164	1382.29700	337.41061	432.44788	1386.15186	345.62778	309.97546	1262.34583	333.78976	321.30536	1405.19092	208.98802	311.68808	1387.09460	91.21091	323.39954	1410.16748	214.21465	388.02512	1390.44580	102.05058	405.05475	1371.47742	-71.24535	378.89288	1294.85339	-53.43279	348.77835	1314.28430	-89.14683	439.19604	1375.80444	-159.70943	287.91364	1340.30225	-135.40683	235.49226	1021.50464	490.75824	477.72604	1025.66968	423.03448	354.41940	1020.72437	388.42407	541.14459	1027.80371	326.98114	417.97806	1012.25085	332.36783	326.43433	1140.52917	331.87802	308.09399	997.91406	218.08746	310.84607	992.77515	230.18918	401.44705	1002.20135	109.54184	409.17105	1012.11810	-68.99084	380.31534	1091.05212	-52.60642	356.24261	1060.35217	-71.01777	439.60126	1012.54956	-170.45984	290.25534	1058.07703	-155.58066	240.34343	
1280	6.395	1205.85693	721.26953	1189.27185	1326.48071	759.70099	1178.74304	1072.86792	766.43274	1188.39160	1200.96289	833.65100	1107.03235	1492.95398	692.25018	1155.68689	1619.17151	668.75586	1064.03735	1605.42310	619.42145	1124.31116	1625.00269	707.40417	1217.30212	1620.92627	813.59583	1272.06458	1657.78271	788.42566	1289.75037	877.63788	708.03058	1159.52722	769.13049	709.69958	1067.07239	769.33002	655.87549	1123.73523	791.94482	759.96344	1227.49768	827.45630	841.37927	1275.15784	777.59760	838.43018	1286.53271	1329.20435	634.81116	674.90479	1277.01770	533.07190	835.24310	1361.98022	631.69684	785.49530	1090.30627	628.16907	671.73798	1159.99841	530.55353	828.53870	1063.05066	629.52789	769.92780	1396.30286	486.03549	480.09625	1391.87439	428.38098	381.09592	1401.00610	374.02789	378.74182	1399.54590	393.70035	536.15668	1382.31348	337.52780	432.41760	1386.14319	345.62024	309.89111	1262.33899	333.82849	321.25638	1405.59570	209.11044	312.01880	1387.08215	91.26263	323.36179	1410.15662	214.24231	388.04163	1390.48535	102.08455	405.05655	1371.55408	-71.21150	378.77960	1294.84814	-53.40181	348.75562	1314.32373	-89.11507	439.10815	1375.49915	-159.63643	287.75760	1340.50867	-135.41719	235.33208	1021.47943	490.80276	477.62744	1025.68274	423.03531	354.30981	1021.07587	387.63440	540.86212	1027.72278	327.03687	417.94019	1012.64160	332.51764	326.31235	1140.49756	331.87924	308.02365	997.88556	218.20262	310.76471	992.72113	230.20177	401.41794	1002.08685	109.54308	409.13913	1011.99658	-68.95515	380.27765	1090.93921	-52.62651	356.11703	1060.23608	-70.97222	439.51974	1012.40198	-170.46724	290.25818	1057.92957	-155.64648	240.35530	
1281	6.400	1205.82727	721.65930	1189.00085	1326.48425	760.01367	1178.44312	1072.83813	766.84973	1188.05188	1200.93604	833.98889	1106.78772	1492.90100	692.49005	1155.51392	1619.15051	668.90314	1063.88867	1605.34412	619.60089	1124.18237	1624.97290	707.62781	1217.13000	1620.87903	813.91364	1271.85449	1657.77881	788.69763	1289.56824	877.57288	708.48883	1159.23071	769.10602	710.17004	1066.80103	769.27667	656.30981	1123.46277	791.90820	760.53607	1227.13171	827.33386	841.91071	1274.86353	777.54370	838.95264	1286.05164	1329.16052	634.97003	674.74292	1276.98975	533.28564	835.07098	1361.95898	631.89832	785.31158	1090.26563	628.29242	671.58508	1159.92786	530.79816	828.38220	1062.98547	629.71582	769.73486	1396.27649	486.14249	480.03308	1391.83789	428.44528	381.06952	1400.97021	374.08255	378.65662	1399.11670	393.68796	535.94000	1382.33386	337.60208	432.40332	1386.19336	345.67230	309.73132	1262.34692	333.88837	321.25525	1405.21594	209.04237	311.62247	1387.11072	91.27296	323.32687	1410.19177	214.30219	388.02811	1390.48962	102.07099	405.04288	1371.60571	-71.19310	378.71033	1294.87817	-53.40412	348.85751	1314.39819	-89.10966	439.00690	1376.03833	-159.64986	287.76111	1340.64160	-135.43123	235.27437	1021.54163	490.94412	477.53329	1025.67358	423.07492	354.19821	1021.00958	387.76651	540.77197	1027.69910	327.08200	417.89374	1012.16907	332.36938	326.35873	1140.62390	331.94757	307.83618	997.82745	218.09663	310.85013	992.75549	230.55954	401.57205	1002.02515	109.56172	409.11945	1011.89111	-68.92361	380.25430	1090.87756	-52.63681	355.95923	1060.17358	-70.93001	439.44922	1012.27661	-170.45868	290.21600	1057.80164	-155.67133	240.35457	
1282	6.405	1205.82300	722.01630	1188.78149	1326.44604	760.36041	1178.19238	1072.71802	767.53082	1188.11279	1200.94421	834.33844	1106.55151	1492.86121	692.74951	1155.31885	1618.11084	669.22223	1063.86450	1605.27271	619.77197	1124.01416	1624.95898	707.84589	1216.94336	1620.85608	814.17767	1271.66101	1657.76758	788.95984	1289.32056	877.51678	708.95221	1158.82507	767.96765	710.36011	1066.97192	769.30566	656.77887	1123.11975	791.83649	761.05597	1226.85022	827.30829	842.45844	1274.47119	777.50000	839.52258	1285.62610	1329.11682	635.09924	674.60150	1276.96826	533.52319	834.89532	1361.94495	632.10669	785.05347	1090.21838	628.45459	671.42596	1159.95044	531.01855	828.17432	1062.91553	629.93872	769.56396	1396.24048	486.23599	479.95740	1391.82019	428.50079	381.05304	1400.99011	374.16083	378.59268	1400.13977	394.36215	536.26178	1382.42505	337.74338	432.29553	1386.25427	345.66943	309.63425	1262.33972	333.85300	321.25830	1405.23425	209.04094	311.61996	1387.16577	91.30177	323.27014	1410.18506	214.31497	388.04953	1390.55164	102.12466	405.00214	1371.69934	-71.17395	378.56378	1294.91980	-53.38836	348.84052	1314.47827	-89.08073	438.89813	1376.18115	-159.60194	287.67322	1340.88501	-135.42653	235.05202	1021.51013	490.95776	477.41791	1025.64258	423.08759	354.12592	1020.94843	387.89020	540.72375	1027.63623	327.16388	417.85193	1012.56372	332.52002	326.27304	1140.67773	331.89941	307.64313	997.81506	218.16512	310.81998	992.56061	230.26431	401.41312	1001.94861	109.56459	409.07004	1011.74963	-68.88068	380.24976	1090.78601	-52.67729	355.80624	1060.13550	-70.88464	439.31311	1012.09955	-170.40186	290.80164	1057.68591	-155.73573	240.32518	
